# xmcd
#
# Track frame offsets:
#	150
#	16903
#	31895
#	42712
#	65997
#	82421
#	101652
#	120505
#	136222
#	159548
#	180433
#
# Disc length: 2586 seconds
#
# Revision: 0
# Processed by: cddbd v1.5.2PL0 Copyright (c) Steve Scherf et al.
# Submitted via: EasyCDDAExtractor 8.2.3.1
#
DISCID=960a180b
DTITLE=Billy Ray Cyrus - Trail Of Tears
DYEAR=1996
DGENRE=country
TTITLE0=Trail Of Tears
TTITLE1=Truth Is I Lied
TTITLE2=Tenntucky
TTITLE3=Call Me Daddy
TTITLE4=Sing Me Back Home
TTITLE5=Three Little Words
TTITLE6=Harper Valley P T A 
TTITLE7=I Am Here Now
TTITLE8=Need A Little Help
TTITLE9=Should I Stay
TTITLE10=Crazy Mama
EXTD=
EXTT0=
EXTT1=
EXTT2=
EXTT3=
EXTT4=
EXTT5=
EXTT6=
EXTT7=
EXTT8=
EXTT9=
EXTT10=
PLAYORDER=
